<?xml version="1.0" encoding="utf-8"?>
<!-- Generator: Adobe Illustrator 23.0.3, SVG Export Plug-In . SVG Version: 6.00 Build 0)  -->
<svg version="1.1"
	 id="svg2" inkscape:version="0.48.3.1 r9886" sodipodi:docname="path.svg" xmlns:cc="http://creativecommons.org/ns#" xmlns:dc="http://purl.org/dc/elements/1.1/" xmlns:inkscape="http://www.inkscape.org/namespaces/inkscape" xmlns:rdf="http://www.w3.org/1999/02/22-rdf-syntax-ns#" xmlns:sodipodi="http://sodipodi.sourceforge.net/DTD/sodipodi-0.dtd" xmlns:svg="http://www.w3.org/2000/svg"
	 xmlns="http://www.w3.org/2000/svg" xmlns:xlink="http://www.w3.org/1999/xlink" x="0px" y="0px" viewBox="0 0 845.2 995.8"
	 style="enable-background:new 0 0 845.2 995.8;" xml:space="preserve">
<sodipodi:namedview  bordercolor="#666666" borderopacity="1.0" id="base" inkscape:bbox-paths="true" inkscape:current-layer="layer1" inkscape:cx="403.61004" inkscape:cy="569.90886" inkscape:document-units="px" inkscape:pageopacity="0.0" inkscape:pageshadow="2" inkscape:snap-bbox="true" inkscape:snap-page="true" inkscape:window-height="1056" inkscape:window-maximized="1" inkscape:window-width="1855" inkscape:window-x="65" inkscape:window-y="24" inkscape:zoom="0.49497475" pagecolor="#ffffff" showgrid="false">
	</sodipodi:namedview>
<path style="fill:none;stroke:#333333;stroke-width:8;stroke-linecap:round;stroke-linejoin:round;" d="M218.2,60.8
	c22.2-32.1,63.8,19.2,94.1-4.1c30.3-23.3,71.6,70.5,107.8,80c32.1,8.5,70.1,7.7,90.4,35.6c16.2,22.2,30.2,47.9,31.6,76.1
	s-12.9,58.7-38,67.3c-12.9,4.4-29.5,1.2-35.8-11.7c-2.6-5.2-3.1-11.3-3.1-17.2c-0.1-42,26-82.7,62.6-97.7c13.6-5.6,28.7-7.9,43-4.5
	c40,9.4,61.1,60.5,55.2,103.8s-31.1,80.5-54.9,116.1c-85.8,128.1-368,228.1-438.9,366.2c-34.6,67.5-68,138.3-74.5,215
	c3.1-30.2,6.6-61.6,21.8-87.3s45.9-43.6,72.5-32.8c36.5,14.7,41.1,66.9,39.5,108.6c-17-39.5-13.9-88.2,8.1-124.9
	c7.4-12.3,18.1-24.1,31.7-25.5c21.6-2.3,37.8,22.6,40.4,45.7c2.5,23.1-3.3,46.5-0.6,69.6c1,9,7.9,20.2,15.4,15.9
	c-1.4-35.3-1.3-71.3,8-105.2s29.1-65.9,58.6-82c8.9-4.8,18.9-8.2,28.7-6.5c18.2,3.2,30.1,22.4,35.3,41.2c8,28.6,5.4,61.1-10,85.9
	c-15.4,24.8-44.4,40.3-71.9,35.1c-4.8-0.9-9.5-2.4-13.4-5.5c-4.6-3.7-7.5-9.3-9.8-15c-15.3-37.6-8.2-83.2,13.9-116.6
	c22.1-33.4,57.7-55.1,95.1-63.9c29.7-6.9,62-5.9,88.7,9.6s46,47.6,42.1,79.8s-35.1,59.5-64.6,51.7c-26.2-6.9-42.4-38.1-40.6-66.9
	s17.9-54.7,37.7-74.4c16.7-16.7,37.9-30.6,60.8-29.4c26.7,1.4,49.3,23.7,60.6,49.6c11.3,25.9,13.4,55.1,15.4,83.6
	c-4-22.6-7.7-46.3-1.8-68.4c5.9-22.1,24.4-42.2,45.9-41.1c34.1,1.7,46.7,46.8,61.2,79.9c13.3,30.5,35.2,56.5,62.1,73.9
	c19.9,12.8,46.4,28.9,41.7,53.2"/>
</svg>
