<?xml version="1.0" encoding="utf-8"?>
<!-- Generator: Adobe Illustrator 23.0.3, SVG Export Plug-In . SVG Version: 6.00 Build 0)  -->
<svg version="1.1" id="圖層_1" xmlns="http://www.w3.org/2000/svg" xmlns:xlink="http://www.w3.org/1999/xlink" x="0px" y="0px"
	 viewBox="0 0 141.7 141.7" style="enable-background:new 0 0 141.7 141.7;" xml:space="preserve">
<style type="text/css">
	.st0{fill:#FFFFFF;}
</style>
<g>
	<g>
		<path class="st0" d="M124.8,42.2H16.9c-3.3,0-6-2.7-6-6s2.7-6,6-6h107.9c3.3,0,6,2.7,6,6S128.1,42.2,124.8,42.2z"/>
	</g>
	<g>
		<path class="st0" d="M103.2,76.9H16.9c-3.3,0-6-2.7-6-6s2.7-6,6-6h86.3c3.3,0,6,2.7,6,6C109.2,74.2,106.5,76.9,103.2,76.9z"/>
	</g>
	<g>
		<path class="st0" d="M81.7,111.5H16.9c-3.3,0-6-2.7-6-6s2.7-6,6-6h64.8c3.3,0,6,2.7,6,6S85,111.5,81.7,111.5z"/>
	</g>
</g>
</svg>
